<svg xmlns="http://www.w3.org/2000/svg" viewBox="826.653 387.721 1272.897 902.248"><defs><pattern id="pattern-0" width="25" height="25" x="0" y="0" patternUnits="userSpaceOnUse" viewBox="0 0 100 100"><rect width="50" height="100" x="0" y="0" style="fill:#000"/></pattern></defs><rect width="67.059" height="779.102" x="826.653" y="510.867" style="fill:#fff"/><rect width="1215.593" height="53.648" x="883.957" y="510.867" style="fill:#fff"/><rect width="43.893" height="484.043" x="1040.021" y="387.721" style="fill:#fff"/><rect width="696.192" height="53.648" x="880.299" y="871.767" style="fill:#fff"/><rect width="67.059" height="578.405" x="2032.491" y="510.867" style="fill:#fff"/><rect width="39.025" height="503.146" x="1085.671" y="507.656" transform="matrix(0.999746, -0.022519, 0, 1.000254, 610.582581, 68.644112)" style="fill:#fff"/><rect width="540.2" height="58.852" x="1678.626" y="1226.226" transform="matrix(0.683557, -0.729897, -0.189717, 1.665514, 792.342468, 88.084869)" style="stroke-linejoin:round;fill:#fff"/><rect width="625.048" height="49.932" x="1942.282" y="1040.377" rx="24.966" ry="24.966" transform="matrix(0.277672, -0.960676, 0.487531, 1.914635, -6.512513, 988.954224)" style="stroke-linejoin:round;fill:#fff"/><rect width="639.012" height="41.854" x="-1985.672" y="-872.044" rx="24.966" ry="24.966" transform="matrix(0.325302, 0.94561, 0.25126, -2.343687, 2061.740727, 438.367484)" style="stroke-linejoin:round;fill:#fff"/><path style="fill:#fff" d="M 786.054 707.505 A 39.177 39.177 0 1 1 790.813 641.515 L 785.698 648.422 A 30.582 30.582 0 1 0 781.984 699.935 Z" transform="matrix(4.726356, 0.092386, -0.125135, 6.4018, -2071.378906, -3573.793945)"/><rect width="49.972" height="221.165" x="1526.519" y="871.764" style="fill:#fff"/><path d="M 811.5 618 m -216.244 0 a 216.244 196.044 0 1 0 432.488 0 a 216.244 196.044 0 1 0 -432.488 0 Z M 811.5 618 m -172.411 0 a 172.411 155.992 0 0 1 344.822 0 a 172.411 155.992 0 0 1 -344.822 0 Z" transform="matrix(-0.526731, -0.850032, 0.629085, -0.883293, 1754.735229, 2043.990356)" style="fill:#fff"/></svg>